<svg width="42" height="41" viewBox="0 0 42 41" fill="none" xmlns="http://www.w3.org/2000/svg">
<path d="M26.9256 10.8999H14.7079C12.7578 10.8999 11.1712 12.4857 11.1712 14.435V26.6469C11.1712 28.5961 12.7578 30.1824 14.7079 30.1824H26.9256C28.8757 30.1824 30.4627 28.5966 30.4627 26.6469V14.435C30.4627 12.4857 28.8762 10.8999 26.9256 10.8999ZM20.8167 26.8889C17.3152 26.8889 14.4663 24.0413 14.4663 20.5409C14.4663 17.041 17.3152 14.1935 20.8167 14.1935C24.3187 14.1935 27.1676 17.041 27.1676 20.5409C27.1676 24.0408 24.3183 26.8889 20.8167 26.8889ZM27.3718 15.5059C26.5429 15.5059 25.8688 14.8321 25.8688 14.004C25.8688 13.176 26.5429 12.5022 27.3718 12.5022C28.2002 12.5022 28.8743 13.176 28.8743 14.004C28.8743 14.8321 28.2002 15.5059 27.3718 15.5059Z" fill="white"/>
<path d="M20.8166 16.877C18.7953 16.877 17.1494 18.5211 17.1494 20.5413C17.1494 22.5624 18.7953 24.2069 20.8166 24.2069C22.8389 24.2069 24.4834 22.5624 24.4834 20.5413C24.4834 18.5215 22.8384 16.877 20.8166 16.877Z" fill="white"/>
<path d="M20.8169 0C9.49759 0 0.320679 9.17214 0.320679 20.4855C0.320679 31.7989 9.49759 40.9711 20.8169 40.9711C32.1362 40.9711 41.3131 31.7989 41.3131 20.4855C41.3131 9.17214 32.1362 0 20.8169 0ZM33.1459 26.6464C33.1459 30.0749 30.356 32.8634 26.9257 32.8634H14.7081C11.2783 32.8634 8.48783 30.0749 8.48783 26.6464V14.4351C8.48783 11.0071 11.2783 8.21813 14.7081 8.21813H26.9257C30.356 8.21813 33.1459 11.0071 33.1459 14.4351V26.6464Z" fill="white"/>
</svg>
