<svg width="41" height="41" viewBox="0 0 41 41" fill="none" xmlns="http://www.w3.org/2000/svg">
<path d="M20.5038 40.9711C31.8235 40.9711 41 31.7994 41 20.4855C41 9.17169 31.8235 0 20.5038 0C9.18403 0 0.00756836 9.17169 0.00756836 20.4855C0.00756836 31.7994 9.18403 40.9711 20.5038 40.9711Z" fill="#007AB9"/>
<path d="M32.7507 22.1351V30.5811H27.8516V22.7011C27.8516 20.7225 27.1442 19.3714 25.3704 19.3714C24.0167 19.3714 23.2125 20.281 22.8574 21.1619C22.7284 21.4767 22.6952 21.9138 22.6952 22.3553V30.5808H17.7956C17.7956 30.5808 17.8614 17.2346 17.7956 15.8531H22.6955V17.9402C22.6857 17.9566 22.6718 17.9727 22.663 17.9884H22.6955V17.9402C23.3466 16.9388 24.5077 15.5073 27.111 15.5073C30.3342 15.5073 32.7507 17.6122 32.7507 22.1351ZM12.6703 8.75391C10.9943 8.75391 9.89789 9.85348 9.89789 11.2982C9.89789 12.7122 10.9626 13.8435 12.606 13.8435H12.6378C14.3466 13.8435 15.4091 12.7122 15.4091 11.2982C15.3765 9.85348 14.3466 8.75391 12.6703 8.75391ZM10.1891 30.5811H15.0868V15.8531H10.1891V30.5811Z" fill="#F1F2F2"/>
</svg>
