<svg width="93" height="47" viewBox="0 0 93 47" fill="none" xmlns="http://www.w3.org/2000/svg">
<g clip-path="url(#clip0)">
<path d="M91.8614 44.6131V42.6496C91.8614 42.4467 91.6972 42.294 91.3689 42.1918C91.1333 42.1209 90.8886 42.0859 90.6429 42.0879H89.2595C89.0261 42.081 88.7925 42.0984 88.5626 42.1399C88.271 42.2095 88.1258 42.357 88.1258 42.5859V44.0928C88.1258 44.4397 88.5595 44.6131 89.4268 44.6131H91.8614ZM92.75 45.2503C92.75 45.7153 92.4612 46.0555 91.8835 46.2711C91.425 46.4323 90.9421 46.5098 90.4571 46.5H90.09C90.0458 46.5066 90.0007 46.5027 89.9582 46.4886C89.9157 46.4744 89.877 46.4505 89.8453 46.4185C89.8135 46.3866 89.7895 46.3476 89.7751 46.3046C89.7607 46.2616 89.7564 46.2157 89.7625 46.1708V46.0823C89.7564 46.0373 89.7607 45.9915 89.7751 45.9484C89.7895 45.9054 89.8135 45.8664 89.8453 45.8345C89.877 45.8025 89.9157 45.7786 89.9582 45.7644C90.0007 45.7503 90.0458 45.7464 90.09 45.753H90.7254C90.9468 45.7406 91.1656 45.6982 91.3759 45.6268C91.691 45.5316 91.8486 45.4399 91.8486 45.3518H89.4488C88.9752 45.3656 88.503 45.2925 88.055 45.1359C87.5207 44.9274 87.2535 44.5825 87.2535 44.101V42.6036C87.2535 42.18 87.4695 41.8531 87.8993 41.6266C88.3092 41.4258 88.7606 41.3283 89.2154 41.3422H90.5024C90.9835 41.3319 91.4623 41.4119 91.9148 41.5782C92.4685 41.7961 92.7457 42.1418 92.7465 42.6154L92.75 45.2503ZM86.078 44.7559C86.1443 44.7797 86.202 44.8233 86.2435 44.881C86.2849 44.9387 86.3082 45.0078 86.3103 45.0793C86.3103 45.2834 86.186 45.3849 85.9363 45.3849H85.661C85.6102 45.384 85.5603 45.372 85.5146 45.3495L82.5201 43.8261V45.0521C82.5201 45.2739 82.4121 45.3849 82.1984 45.3849H81.9777C81.764 45.3849 81.6559 45.2739 81.6559 45.0521V40.5799C81.6495 40.5354 81.6534 40.49 81.6673 40.4473C81.6812 40.4046 81.7047 40.3658 81.7359 40.334C81.7672 40.3021 81.8053 40.2781 81.8472 40.2639C81.8892 40.2496 81.9339 40.2455 81.9777 40.2518H82.1984C82.2422 40.2455 82.2868 40.2496 82.3288 40.2639C82.3708 40.2781 82.4089 40.3021 82.4401 40.334C82.4714 40.3658 82.4949 40.4046 82.5088 40.4473C82.5226 40.49 82.5265 40.5354 82.5201 40.5799V42.9092L85.4751 41.4118C85.5217 41.3929 85.5705 41.3806 85.6203 41.3752H85.8747C86.121 41.3752 86.2441 41.4755 86.2441 41.6785C86.2428 41.7487 86.2206 41.8168 86.1803 41.8739C86.1401 41.931 86.0838 41.9744 86.0188 41.9983L83.3332 43.3588L86.078 44.7559ZM73.8549 43.2219C73.8549 44.2068 73.4112 44.8421 72.5237 45.1276C71.9352 45.3164 71.1097 45.4108 70.0473 45.4108H64.5531C64.1822 45.4108 63.9967 45.2193 63.9967 44.8362V44.6568C63.9967 44.2737 64.1822 44.0821 64.5531 44.0821H70.0473C71.5287 44.0821 72.269 43.8041 72.2682 43.2479V42.4821C72.2682 41.8913 71.5349 41.5955 70.0682 41.5947H67.9693C65.307 41.5947 63.9758 40.8902 63.9758 39.4813V38.817C63.9758 37.8785 64.4149 37.2369 65.293 36.8924C65.8568 36.6705 66.697 36.5596 67.8136 36.5596H68.6267C69.0023 36.5596 69.1901 36.748 69.1901 37.1248V37.3042C69.1901 37.6842 69.0023 37.8741 68.6267 37.8741H67.7962C66.3094 37.8741 65.566 38.1829 65.566 38.8004V39.4129C65.566 39.7987 65.8947 40.0512 66.551 40.1669C67.0134 40.2236 67.4792 40.2465 67.9449 40.2353H70.0659C71.0114 40.2353 71.8129 40.3687 72.4703 40.6353C73.3926 41.0129 73.8541 41.6089 73.8549 42.4231V43.2219ZM62.3322 37.3065C62.3322 37.6865 62.144 37.8765 61.7677 37.8765H56.112C54.7391 37.8765 54.0526 38.1554 54.0526 38.7131V43.0945C54.0526 43.5146 54.3565 43.8068 54.9644 43.9712C55.2316 44.0444 55.6881 44.0821 56.3374 44.0821H61.734C62.1049 44.0821 62.2904 44.2737 62.2904 44.6568V44.8362C62.2904 45.2201 62.1049 45.4116 61.734 45.4108H56.3397C55.8791 45.4191 55.4184 45.401 54.9598 45.3565C54.5064 45.2953 54.0674 45.1522 53.6635 44.9341C52.8651 44.5007 52.4663 43.8977 52.4671 43.1252V38.7202C52.4671 38.1695 52.7207 37.6952 53.2279 37.2971C53.6732 36.956 54.1941 36.7312 54.7449 36.6422C55.1889 36.5793 55.6371 36.5517 56.0853 36.5596H61.7642C62.1405 36.5596 62.3287 36.748 62.3287 37.1248L62.3322 37.3065ZM50.4471 44.4562C50.4471 44.8668 50.3426 45.1441 50.1347 45.2928C49.9836 45.399 49.7351 45.451 49.3924 45.451C49.2144 45.4347 49.0455 45.3639 48.908 45.248C48.8802 45.2291 48.7989 45.163 48.6618 45.045L41.2499 38.64V44.8362C41.2499 45.2173 41.0629 45.4085 40.6865 45.4085H40.2219C39.851 45.4085 39.6655 45.2177 39.6655 44.8362V37.1366C39.6655 36.9396 39.8026 36.7602 40.0732 36.5997C40.1971 36.5258 40.3384 36.4874 40.4821 36.4888C40.7402 36.5015 40.9906 36.5829 41.2081 36.7248C41.3263 36.7926 41.4379 36.8716 41.5414 36.9608L48.8593 43.2904V37.1248C48.8593 36.7484 49.0463 36.5596 49.4226 36.5596H49.8814C50.257 36.5596 50.4448 36.748 50.4448 37.1248L50.4471 44.4562ZM38.5005 44.612C38.5027 44.7303 38.4751 44.8472 38.4202 44.9515C38.3653 45.0558 38.2849 45.1441 38.1868 45.2079C37.9962 45.3453 37.7666 45.4157 37.5329 45.4085C37.293 45.4133 37.0575 45.3433 36.858 45.2079C36.7564 45.1466 36.6723 45.0596 36.6138 44.9554C36.5553 44.8511 36.5246 44.7331 36.5246 44.6131C36.5246 44.4931 36.5553 44.3752 36.6138 44.2709C36.6723 44.1667 36.7564 44.0796 36.858 44.0184C37.0585 43.8861 37.2938 43.8186 37.5329 43.8249C37.7664 43.8191 37.9956 43.8894 38.1868 44.0255C38.284 44.0879 38.3639 44.1746 38.4188 44.2773C38.4737 44.3799 38.5018 44.4951 38.5005 44.612ZM35.4119 43.2196C35.4119 44.2045 34.9682 44.8397 34.0807 45.1253C33.4914 45.3141 32.6656 45.4085 31.6031 45.4085H26.1101C25.7399 45.4085 25.5545 45.2169 25.5537 44.8338V44.6544C25.5537 44.2713 25.7392 44.0798 26.1101 44.0798H31.6031C33.0853 44.0798 33.826 43.8017 33.8252 43.2455V42.4797C33.8252 41.8889 33.0915 41.5931 31.624 41.5923H29.5262C26.8639 41.5923 25.5328 40.8879 25.5328 39.4789V38.817C25.5328 37.8785 25.9719 37.2369 26.85 36.8924C27.4138 36.6705 28.2539 36.5596 29.3706 36.5596H30.1837C30.5585 36.5596 30.7463 36.748 30.747 37.1248V37.3042C30.747 37.6842 30.5593 37.8741 30.1837 37.8741H29.3532C27.8664 37.8741 27.1226 38.1829 27.1218 38.8004V39.4129C27.1218 39.7987 27.4517 40.0512 28.108 40.1669C28.5704 40.2236 29.0362 40.2465 29.5019 40.2353H31.6275C32.5738 40.2353 33.3757 40.3687 34.0331 40.6353C34.9554 41.0129 35.4169 41.6089 35.4177 42.4231L35.4119 43.2196ZM22.1701 42.9954V38.994C22.1701 38.2466 21.3663 37.8733 19.7587 37.8741H17.2358C15.6189 37.8741 14.8104 38.2474 14.8104 38.994V42.9942C14.8104 43.7171 15.6189 44.0786 17.2358 44.0786H19.7633C21.3678 44.0794 22.1701 43.7179 22.1701 42.9942V42.9954ZM23.7568 43.0331C23.7568 44.6167 22.4117 45.4085 19.7215 45.4085H17.252C15.3277 45.4085 14.0887 44.9734 13.535 44.1034C13.3315 43.7881 13.2247 43.4184 13.2284 43.0414V38.9633C13.2284 37.3608 14.5688 36.5596 17.2497 36.5596H19.7262C20.9365 36.5596 21.827 36.6729 22.3977 36.8994C23.3084 37.2566 23.7637 37.9445 23.7637 38.9633L23.7568 43.0331ZM9.78087 43.0095V38.8193C9.78087 38.4606 9.47925 38.1872 8.87601 37.9992C8.51442 37.9039 8.14125 37.8618 7.76789 37.8741H2.08669V44.0798H7.74233C8.92945 44.0798 9.60199 43.7899 9.75996 43.2101C9.77548 43.1445 9.78251 43.077 9.78087 43.0095ZM11.3525 43.019C11.3658 43.3659 11.2854 43.7099 11.1201 44.0137L11.1411 43.9641C10.9002 44.466 10.4066 44.846 9.66007 45.104C9.05182 45.311 8.41396 45.4139 7.77253 45.4085H1.05639C0.685463 45.4085 0.5 45.2177 0.5 44.8362V37.1248C0.5 36.7488 0.685463 36.5604 1.05639 36.5596H7.81783C8.20427 36.5551 8.59042 36.5827 8.97242 36.6422C10.5599 36.9183 11.3544 37.6432 11.3559 38.817L11.3525 43.019Z" fill="black"/>
<path d="M78.982 44.0987C78.8485 44.2552 78.684 44.3813 78.4992 44.469C78.3145 44.5566 78.1137 44.6037 77.9099 44.6073C77.5369 44.5965 77.1828 44.4384 76.9228 44.1666C76.6628 43.8948 76.5173 43.5307 76.5173 43.1517C76.5173 42.7727 76.6628 42.4086 76.9228 42.1369C77.1828 41.8651 77.5369 41.707 77.9099 41.6962C78.1138 41.6995 78.3147 41.7465 78.4994 41.8341C78.6842 41.9217 78.8486 42.0481 78.982 42.2048V41.7481H79.3014V44.3441C79.3147 44.3925 79.3429 44.4352 79.3817 44.4662C79.4206 44.4972 79.4681 44.5148 79.5175 44.5164C79.6336 44.5164 79.7943 44.3689 79.9995 44.0739C80.1937 43.8102 80.301 43.491 80.3062 43.1618C80.3069 42.6807 80.1671 42.2103 79.9046 41.8099C79.642 41.4096 79.2685 41.0973 78.8313 40.9126C78.394 40.7279 77.9127 40.6791 77.4482 40.7724C76.9836 40.8656 76.5567 41.0967 76.2215 41.4365C75.8862 41.7762 75.6577 42.2093 75.5648 42.681C75.4718 43.1527 75.5187 43.6418 75.6995 44.0865C75.8802 44.5311 76.1867 44.9113 76.5801 45.179C76.9736 45.4466 77.4363 45.5898 77.9099 45.5902C78.3629 45.5902 78.6916 45.5253 78.8995 45.3932L79.1237 45.6292C78.7508 45.8307 78.3319 45.9276 77.9099 45.91C77.3734 45.9107 76.8488 45.7497 76.4025 45.4474C75.9562 45.1451 75.6081 44.7151 75.4025 44.2117C75.1968 43.7084 75.1428 43.1544 75.2472 42.6199C75.3516 42.0853 75.6097 41.5943 75.989 41.2088C76.3682 40.8234 76.8515 40.5609 77.3776 40.4546C77.9038 40.3483 78.4491 40.403 78.9447 40.6117C79.4402 40.8204 79.8637 41.1738 80.1615 41.6271C80.4592 42.0804 80.6179 42.6133 80.6175 43.1582C80.6009 43.5492 80.4743 43.9272 80.2527 44.2474C80.01 44.6344 79.7417 44.8291 79.4466 44.8291C79.4136 44.8287 79.3806 44.826 79.3479 44.8209C79.2497 44.8096 79.1588 44.7629 79.0916 44.6893C79.0244 44.6157 78.9855 44.52 78.982 44.4197V44.0987ZM78.9901 43.4178V42.8892C78.9316 42.6447 78.7943 42.4271 78.6 42.271C78.4057 42.115 78.1657 42.0293 77.918 42.0278C77.7727 42.0251 77.6285 42.0532 77.4945 42.1102C77.3605 42.1673 77.2397 42.2522 77.1398 42.3594C77.0357 42.4634 76.9535 42.5879 76.8981 42.7252C76.8428 42.8626 76.8156 43.0099 76.818 43.1582C76.8162 43.3049 76.8438 43.4505 76.8991 43.586C76.9544 43.7215 77.0363 43.8441 77.1398 43.9465C77.2781 44.0873 77.4508 44.1882 77.6403 44.2386C77.8297 44.2891 78.029 44.2873 78.2175 44.2334C78.4061 44.1795 78.5771 44.0756 78.7129 43.9322C78.8487 43.7888 78.9444 43.6113 78.9901 43.4178Z" fill="black"/>
<path opacity="0.8" d="M68.5214 6.79635C65.7754 4.46112 61.9678 3.02033 57.7514 3.02033C53.5349 3.02033 49.7261 4.46584 46.9802 6.79635C44.2889 9.08556 42.6244 12.2338 42.6244 15.6971C42.6244 19.1604 44.2889 22.3052 46.9802 24.5979C49.7261 26.9331 53.5337 28.3739 57.7514 28.3739C61.969 28.3739 65.7754 26.9296 68.5214 24.5979C71.2127 22.3087 72.8772 19.1604 72.8772 15.6971C72.8772 12.2338 71.2127 9.0891 68.5214 6.79635ZM57.7514 0.75C62.5045 0.75 66.8185 2.40201 69.9478 5.06174C73.1351 7.77575 75.1062 11.5317 75.1062 15.6971C75.1062 19.8626 73.1316 23.6221 69.9478 26.3325C66.8115 28.9958 62.5022 30.6443 57.7514 30.6443C53.0006 30.6443 48.6831 28.9923 45.555 26.3325C42.3677 23.6185 40.3965 19.8626 40.3965 15.6971C40.3965 11.5317 42.3711 7.77221 45.555 5.06174C48.6831 2.40201 53.0029 0.75 57.7514 0.75Z" fill="#0A4F29"/>
<path opacity="0.8" d="M46.1896 6.62289C43.4019 4.25462 39.5467 2.78905 35.2768 2.78905C31.0069 2.78905 27.1458 4.25462 24.3581 6.62289C21.618 8.95458 19.9221 12.163 19.9221 15.6971C19.9221 19.2312 21.618 22.4397 24.3581 24.7714C27.1458 27.1396 31.0011 28.604 35.2768 28.604C39.5525 28.604 43.4077 27.1396 46.1896 24.7714C48.9309 22.4397 50.6268 19.2312 50.6268 15.6971C50.6268 12.163 48.9309 8.95458 46.1896 6.62289ZM35.2768 0.976562C39.9764 0.976562 44.2394 2.60379 47.3338 5.2352C50.47 7.9032 52.4109 11.6072 52.4109 15.6971C52.4109 19.787 50.47 23.4911 47.3338 26.1591C44.2394 28.7905 39.9764 30.4177 35.2768 30.4177C30.5771 30.4177 26.3142 28.7905 23.2198 26.1591C20.0835 23.4911 18.1426 19.787 18.1426 15.6971C18.1426 11.6072 20.0824 7.9032 23.2198 5.23402C26.3142 2.60379 30.5771 0.976562 35.2768 0.976562Z" fill="#149A4F"/>
</g>
<defs>
<clipPath id="clip0">
<rect width="92.25" height="45.75" fill="white" transform="translate(0.5 0.75)"/>
</clipPath>
</defs>
</svg>
